<svg width="1165" height="410" viewBox="0 0 1165 410" fill="none" xmlns="http://www.w3.org/2000/svg">
<rect width="1165" height="410" fill="#1A1610"/>
<g clip-path="url(#clip0_6_591)">
<path d="M1087.73 314.783C1070.25 314.783 1083.36 373.069 1065.88 373.069" stroke="#0285D9" stroke-width="3.27" stroke-linecap="round" stroke-linejoin="round"/>
<path d="M1165 373.069H-5.22137e-05" stroke="#0285D9" stroke-width="3.27" stroke-linejoin="round"/>
<path d="M1131.45 373.069C1113.96 373.069 1127.08 329.355 1109.59 329.355H82.2932C64.8073 329.355 77.9217 373.069 60.4358 373.069" stroke="#D9008F" stroke-width="3.27" stroke-linecap="round" stroke-linejoin="round"/>
<path d="M1109.59 373.069C1092.11 373.069 1105.22 314.783 1087.73 314.783H650.586C633.1 314.783 646.214 329.355 628.728 329.355" stroke="#05D90A" stroke-width="3.27" stroke-linecap="round" stroke-linejoin="round"/>
<path d="M1065.88 373.069C1048.39 373.069 1061.51 300.211 1044.02 300.211H650.586C633.1 300.211 646.214 314.783 628.728 314.783H519.441C501.955 314.783 515.07 329.355 497.584 329.355" stroke="#D13131" stroke-width="3.27" stroke-linecap="round" stroke-linejoin="round"/>
<path d="M1044.02 373.069C1026.53 373.069 1039.65 285.64 1022.16 285.64H650.586C633.1 285.64 646.214 300.211 628.728 300.211H519.441C501.955 300.211 515.07 314.783 497.584 314.783H388.297C370.811 314.783 383.925 329.355 366.439 329.355" stroke="#05D9CD" stroke-width="3.27" stroke-linecap="round" stroke-linejoin="round"/>
<path d="M1022.16 373.069C1004.68 373.069 1017.79 271.068 1000.3 271.068H650.586C633.1 271.068 646.214 285.64 628.728 285.64H519.441C501.955 285.64 515.07 300.211 497.584 300.211H388.297C370.811 300.211 383.925 314.783 366.44 314.783H213.438C195.952 314.783 209.066 329.355 191.58 329.355" stroke="#E238E8" stroke-width="3.27" stroke-linecap="round" stroke-linejoin="round"/>
<path d="M1000.3 373.069C982.818 373.069 995.933 256.497 978.447 256.497H650.586C633.1 256.497 646.214 271.068 628.728 271.068H519.441C501.955 271.068 515.07 285.64 497.584 285.64H388.297C370.811 285.64 383.925 300.211 366.44 300.211H213.438C195.952 300.211 209.066 329.355 191.58 329.355" stroke="#86D900" stroke-width="3.27" stroke-linecap="round" stroke-linejoin="round"/>
<path d="M978.447 373.069C960.961 373.069 974.076 241.925 956.59 241.925H650.586C633.1 241.925 646.214 256.497 628.728 256.497H519.441C501.955 256.497 515.07 271.068 497.584 271.068H388.297C370.811 271.068 383.925 285.64 366.439 285.64H213.438C195.952 285.64 209.066 314.783 191.58 314.783H104.151C86.6646 314.783 99.7791 329.355 82.2931 329.355" stroke="#DD5B24" stroke-width="3.27" stroke-linecap="round" stroke-linejoin="round"/>
<path d="M1150.03 373.07C1150.03 371.259 1151.5 369.791 1153.31 369.791C1155.12 369.791 1156.58 371.259 1156.58 373.07C1156.58 374.88 1155.12 376.348 1153.31 376.348C1151.5 376.348 1150.03 374.88 1150.03 373.07Z" fill="#0285D9"/>
<path d="M1128.17 373.07C1128.17 371.259 1129.64 369.791 1131.45 369.791C1133.26 369.791 1134.73 371.259 1134.73 373.07C1134.73 374.88 1133.26 376.348 1131.45 376.348C1129.64 376.348 1128.17 374.88 1128.17 373.07Z" fill="#0285D9"/>
<path d="M1106.31 373.07C1106.31 371.259 1107.78 369.791 1109.59 369.791C1111.4 369.791 1112.87 371.259 1112.87 373.07C1112.87 374.88 1111.4 376.348 1109.59 376.348C1107.78 376.348 1106.31 374.88 1106.31 373.07Z" fill="#0285D9"/>
<path d="M1084.46 314.783C1084.46 312.973 1085.92 311.505 1087.73 311.505C1089.54 311.505 1091.01 312.973 1091.01 314.783C1091.01 316.594 1089.54 318.062 1087.73 318.062C1085.92 318.062 1084.46 316.594 1084.46 314.783Z" fill="#05D90A"/>
<path d="M1062.6 373.07C1062.6 371.259 1064.07 369.791 1065.88 369.791C1067.69 369.791 1069.16 371.259 1069.16 373.07C1069.16 374.88 1067.69 376.348 1065.88 376.348C1064.07 376.348 1062.6 374.88 1062.6 373.07Z" fill="#0285D9"/>
<path d="M1040.74 373.07C1040.74 371.259 1042.21 369.791 1044.02 369.791C1045.83 369.791 1047.3 371.259 1047.3 373.07C1047.3 374.88 1045.83 376.348 1044.02 376.348C1042.21 376.348 1040.74 374.88 1040.74 373.07Z" fill="#0285D9"/>
<path d="M1018.88 373.07C1018.88 371.259 1020.35 369.791 1022.16 369.791C1023.97 369.791 1025.44 371.259 1025.44 373.07C1025.44 374.88 1023.97 376.348 1022.16 376.348C1020.35 376.348 1018.88 374.88 1018.88 373.07Z" fill="#0285D9"/>
<path d="M997.026 373.07C997.026 371.259 998.494 369.791 1000.3 369.791C1002.12 369.791 1003.58 371.259 1003.58 373.07C1003.58 374.88 1002.12 376.348 1000.3 376.348C998.494 376.348 997.026 374.88 997.026 373.07Z" fill="#0285D9"/>
<path d="M975.168 373.07C975.168 371.259 976.636 369.791 978.447 369.791C980.258 369.791 981.726 371.259 981.726 373.07C981.726 374.88 980.258 376.348 978.447 376.348C976.636 376.348 975.168 374.88 975.168 373.07Z" fill="#0285D9"/>
<path d="M953.311 373.07C953.311 371.259 954.779 369.791 956.59 369.791C958.4 369.791 959.868 371.259 959.868 373.07C959.868 374.88 958.4 376.348 956.59 376.348C954.779 376.348 953.311 374.88 953.311 373.07Z" fill="#0285D9"/>
<path d="M931.454 373.07C931.454 371.259 932.921 369.791 934.732 369.791C936.543 369.791 938.011 371.259 938.011 373.07C938.011 374.88 936.543 376.348 934.732 376.348C932.921 376.348 931.454 374.88 931.454 373.07Z" fill="#0285D9"/>
<path d="M909.596 329.355C909.596 327.544 911.064 326.076 912.875 326.076C914.685 326.076 916.153 327.544 916.153 329.355C916.153 331.165 914.685 332.633 912.875 332.633C911.064 332.633 909.596 331.165 909.596 329.355Z" fill="#D9008F"/>
<path d="M887.739 314.783C887.739 312.973 889.207 311.505 891.017 311.505C892.828 311.505 894.296 312.973 894.296 314.783C894.296 316.594 892.828 318.062 891.017 318.062C889.207 318.062 887.739 316.594 887.739 314.783Z" fill="#05D90A"/>
<path d="M865.881 300.212C865.881 298.401 867.349 296.933 869.16 296.933C870.971 296.933 872.439 298.401 872.439 300.212C872.439 302.022 870.971 303.49 869.16 303.49C867.349 303.49 865.881 302.022 865.881 300.212Z" fill="#D13131"/>
<path d="M844.024 285.64C844.024 283.829 845.492 282.361 847.303 282.361C849.113 282.361 850.581 283.829 850.581 285.64C850.581 287.451 849.113 288.918 847.303 288.918C845.492 288.918 844.024 287.451 844.024 285.64Z" fill="#05D9CD"/>
<path d="M822.167 271.069C822.167 269.258 823.634 267.79 825.445 267.79C827.256 267.79 828.724 269.258 828.724 271.069C828.724 272.879 827.256 274.347 825.445 274.347C823.634 274.347 822.167 272.879 822.167 271.069Z" fill="#E238E8"/>
<path d="M800.309 256.497C800.309 254.686 801.777 253.218 803.588 253.218C805.398 253.218 806.866 254.686 806.866 256.497C806.866 258.308 805.398 259.775 803.588 259.775C801.777 259.775 800.309 258.308 800.309 256.497Z" fill="#86D900"/>
<path d="M778.452 241.925C778.452 240.114 779.92 238.646 781.73 238.646C783.541 238.646 785.009 240.114 785.009 241.925C785.009 243.736 783.541 245.204 781.73 245.204C779.92 245.204 778.452 243.736 778.452 241.925Z" fill="#DD5B24"/>
<path d="M756.594 373.07C756.594 371.259 758.062 369.791 759.873 369.791C761.684 369.791 763.151 371.259 763.151 373.07C763.151 374.88 761.684 376.348 759.873 376.348C758.062 376.348 756.594 374.88 756.594 373.07Z" fill="#0285D9"/>
<path d="M734.737 373.07C734.737 371.259 736.205 369.791 738.015 369.791C739.826 369.791 741.294 371.259 741.294 373.07C741.294 374.88 739.826 376.348 738.015 376.348C736.205 376.348 734.737 374.88 734.737 373.07Z" fill="#0285D9"/>
<path d="M712.879 373.07C712.879 371.259 714.347 369.791 716.158 369.791C717.969 369.791 719.437 371.259 719.437 373.07C719.437 374.88 717.969 376.348 716.158 376.348C714.347 376.348 712.879 374.88 712.879 373.07Z" fill="#0285D9"/>
<path d="M691.022 329.355C691.022 327.544 692.49 326.076 694.301 326.076C696.111 326.076 697.579 327.544 697.579 329.355C697.579 331.165 696.111 332.633 694.301 332.633C692.49 332.633 691.022 331.165 691.022 329.355Z" fill="#D9008F"/>
<path d="M669.165 373.07C669.165 371.259 670.633 369.791 672.443 369.791C674.254 369.791 675.722 371.259 675.722 373.07C675.722 374.88 674.254 376.348 672.443 376.348C670.633 376.348 669.165 374.88 669.165 373.07Z" fill="#0285D9"/>
<path d="M647.307 373.07C647.307 371.259 648.775 369.791 650.586 369.791C652.397 369.791 653.865 371.259 653.865 373.07C653.865 374.88 652.397 376.348 650.586 376.348C648.775 376.348 647.307 374.88 647.307 373.07Z" fill="#0285D9"/>
<path d="M625.45 329.355C625.45 327.544 626.918 326.076 628.728 326.076C630.539 326.076 632.007 327.544 632.007 329.355C632.007 331.165 630.539 332.633 628.728 332.633C626.918 332.633 625.45 331.165 625.45 329.355Z" fill="#D9008F"/>
<path d="M603.592 373.07C603.592 371.259 605.06 369.791 606.871 369.791C608.682 369.791 610.15 371.259 610.15 373.07C610.15 374.88 608.682 376.348 606.871 376.348C605.06 376.348 603.592 374.88 603.592 373.07Z" fill="#0285D9"/>
<path d="M581.735 373.07C581.735 371.259 583.203 369.791 585.014 369.791C586.824 369.791 588.292 371.259 588.292 373.07C588.292 374.88 586.824 376.348 585.014 376.348C583.203 376.348 581.735 374.88 581.735 373.07Z" fill="#0285D9"/>
<path d="M559.878 329.355C559.878 327.544 561.345 326.076 563.156 326.076C564.967 326.076 566.435 327.544 566.435 329.355C566.435 331.165 564.967 332.633 563.156 332.633C561.345 332.633 559.878 331.165 559.878 329.355Z" fill="#D9008F"/>
<path d="M538.02 373.07C538.02 371.259 539.488 369.791 541.299 369.791C543.11 369.791 544.577 371.259 544.577 373.07C544.577 374.88 543.11 376.348 541.299 376.348C539.488 376.348 538.02 374.88 538.02 373.07Z" fill="#0285D9"/>
<path d="M516.163 373.07C516.163 371.259 517.631 369.791 519.441 369.791C521.252 369.791 522.72 371.259 522.72 373.07C522.72 374.88 521.252 376.348 519.441 376.348C517.631 376.348 516.163 374.88 516.163 373.07Z" fill="#0285D9"/>
<path d="M494.305 329.355C494.305 327.544 495.773 326.076 497.584 326.076C499.395 326.076 500.863 327.544 500.863 329.355C500.863 331.165 499.395 332.633 497.584 332.633C495.773 332.633 494.305 331.165 494.305 329.355Z" fill="#D9008F"/>
<path d="M472.448 373.07C472.448 371.259 473.916 369.791 475.727 369.791C477.537 369.791 479.005 371.259 479.005 373.07C479.005 374.88 477.537 376.348 475.727 376.348C473.916 376.348 472.448 374.88 472.448 373.07Z" fill="#0285D9"/>
<path d="M450.59 373.07C450.59 371.259 452.058 369.791 453.869 369.791C455.68 369.791 457.148 371.259 457.148 373.07C457.148 374.88 455.68 376.348 453.869 376.348C452.058 376.348 450.59 374.88 450.59 373.07Z" fill="#0285D9"/>
<path d="M428.733 373.07C428.733 371.259 430.201 369.791 432.012 369.791C433.823 369.791 435.29 371.259 435.29 373.07C435.29 374.88 433.823 376.348 432.012 376.348C430.201 376.348 428.733 374.88 428.733 373.07Z" fill="#0285D9"/>
<path d="M406.876 373.07C406.876 371.259 408.344 369.791 410.154 369.791C411.965 369.791 413.433 371.259 413.433 373.07C413.433 374.88 411.965 376.348 410.154 376.348C408.344 376.348 406.876 374.88 406.876 373.07Z" fill="#0285D9"/>
<path d="M385.018 373.07C385.018 371.259 386.486 369.791 388.297 369.791C390.108 369.791 391.576 371.259 391.576 373.07C391.576 374.88 390.108 376.348 388.297 376.348C386.486 376.348 385.018 374.88 385.018 373.07Z" fill="#0285D9"/>
<path d="M363.161 329.355C363.161 327.544 364.629 326.076 366.439 326.076C368.25 326.076 369.718 327.544 369.718 329.355C369.718 331.165 368.25 332.633 366.439 332.633C364.629 332.633 363.161 331.165 363.161 329.355Z" fill="#D9008F"/>
<path d="M341.303 314.783C341.303 312.973 342.771 311.505 344.582 311.505C346.393 311.505 347.861 312.973 347.861 314.783C347.861 316.594 346.393 318.062 344.582 318.062C342.771 318.062 341.303 316.594 341.303 314.783Z" fill="#E238E8"/>
<path d="M319.446 329.355C319.446 327.544 320.914 326.076 322.725 326.076C324.535 326.076 326.003 327.544 326.003 329.355C326.003 331.165 324.535 332.633 322.725 332.633C320.914 332.633 319.446 331.165 319.446 329.355Z" fill="#D9008F"/>
<path d="M297.589 373.07C297.589 371.259 299.057 369.791 300.867 369.791C302.678 369.791 304.146 371.259 304.146 373.07C304.146 374.88 302.678 376.348 300.867 376.348C299.057 376.348 297.589 374.88 297.589 373.07Z" fill="#0285D9"/>
<path d="M275.731 373.07C275.731 371.259 277.199 369.791 279.01 369.791C280.821 369.791 282.288 371.259 282.288 373.07C282.288 374.88 280.821 376.348 279.01 376.348C277.199 376.348 275.731 374.88 275.731 373.07Z" fill="#0285D9"/>
<path d="M253.874 314.783C253.874 312.973 255.342 311.505 257.152 311.505C258.963 311.505 260.431 312.973 260.431 314.783C260.431 316.594 258.963 318.062 257.152 318.062C255.342 318.062 253.874 316.594 253.874 314.783Z" fill="#E238E8"/>
<path d="M232.017 373.07C232.017 371.259 233.484 369.791 235.295 369.791C237.106 369.791 238.574 371.259 238.574 373.07C238.574 374.88 237.106 376.348 235.295 376.348C233.484 376.348 232.017 374.88 232.017 373.07Z" fill="#0285D9"/>
<path d="M210.159 373.07C210.159 371.259 211.627 369.791 213.438 369.791C215.248 369.791 216.716 371.259 216.716 373.07C216.716 374.88 215.248 376.348 213.438 376.348C211.627 376.348 210.159 374.88 210.159 373.07Z" fill="#0285D9"/>
<path d="M188.302 329.355C188.302 327.544 189.77 326.076 191.58 326.076C193.391 326.076 194.859 327.544 194.859 329.355C194.859 331.165 193.391 332.633 191.58 332.633C189.77 332.633 188.302 331.165 188.302 329.355Z" fill="#D9008F"/>
<path d="M166.444 373.07C166.444 371.259 167.912 369.791 169.723 369.791C171.534 369.791 173.001 371.259 173.001 373.07C173.001 374.88 171.534 376.348 169.723 376.348C167.912 376.348 166.444 374.88 166.444 373.07Z" fill="#0285D9"/>
<path d="M144.587 373.07C144.587 371.259 146.055 369.791 147.865 369.791C149.676 369.791 151.144 371.259 151.144 373.07C151.144 374.88 149.676 376.348 147.865 376.348C146.055 376.348 144.587 374.88 144.587 373.07Z" fill="#0285D9"/>
<path d="M122.729 373.07C122.729 371.259 124.197 369.791 126.008 369.791C127.819 369.791 129.287 371.259 129.287 373.07C129.287 374.88 127.819 376.348 126.008 376.348C124.197 376.348 122.729 374.88 122.729 373.07Z" fill="#0285D9"/>
<path d="M100.872 373.07C100.872 371.259 102.34 369.791 104.151 369.791C105.961 369.791 107.429 371.259 107.429 373.07C107.429 374.88 105.961 376.348 104.151 376.348C102.34 376.348 100.872 374.88 100.872 373.07Z" fill="#0285D9"/>
<path d="M79.0146 329.355C79.0146 327.544 80.4824 326.076 82.2932 326.076C84.1039 326.076 85.5718 327.544 85.5718 329.355C85.5718 331.165 84.1039 332.633 82.2932 332.633C80.4824 332.633 79.0146 331.165 79.0146 329.355Z" fill="#D9008F"/>
<path d="M57.1571 373.07C57.1571 371.259 58.625 369.791 60.4357 369.791C62.2465 369.791 63.7144 371.259 63.7144 373.07C63.7144 374.88 62.2465 376.348 60.4357 376.348C58.625 376.348 57.1571 374.88 57.1571 373.07Z" fill="#0285D9"/>
<path d="M35.2997 373.07C35.2997 371.259 36.7676 369.791 38.5783 369.791C40.389 369.791 41.8569 371.259 41.8569 373.07C41.8569 374.88 40.389 376.348 38.5783 376.348C36.7676 376.348 35.2997 374.88 35.2997 373.07Z" fill="#0285D9"/>
<path d="M13.4423 373.07C13.4423 371.259 14.9102 369.791 16.7209 369.791C18.5316 369.791 19.9995 371.259 19.9995 373.07C19.9995 374.88 18.5316 376.348 16.7209 376.348C14.9102 376.348 13.4423 374.88 13.4423 373.07Z" fill="#0285D9"/>
</g>
<path d="M523.88 65.8H520.94C517.7 65.8 516.8 67.9 516.8 71.26V75.64H524.78V79.84H516.8V103H512V79.84H507.32V76.24L512 75.64V71.26C512 65.38 514.52 61.6 520.76 61.6H523.88V65.8ZM534.38 61.6V95.26C534.38 97.6 534.98 98.68 537.14 98.68H538.64V103.12H535.82C531.08 103.12 529.58 100.3 529.58 95.8V61.6H534.38ZM554.869 75.04C563.449 75.04 567.169 81.1 567.169 89.26C567.169 97.6 563.509 103.6 554.689 103.6C546.349 103.6 542.509 97.54 542.509 89.32C542.509 81.1 546.229 75.04 554.869 75.04ZM554.749 99.22C560.149 99.22 562.249 95.38 562.249 89.32C562.249 83.2 560.149 79.42 554.749 79.42C549.589 79.42 547.369 83.2 547.369 89.26C547.369 95.44 549.589 99.22 554.749 99.22ZM580.616 95.08C580.616 97.6 581.696 99.16 584.336 99.16C585.536 99.16 586.916 98.8 588.056 98.32L588.536 102.46C587.156 103.12 585.116 103.6 582.956 103.6C577.976 103.6 575.876 100.42 575.876 95.62V79.78H570.656V76.24L575.876 75.64V68.8L580.616 67.9V75.64H587.936V79.78H580.616V95.08ZM596.268 68.98C594.348 68.98 592.908 68.08 592.908 65.74C592.908 63.4 594.348 62.38 596.268 62.38C598.008 62.38 599.628 63.4 599.628 65.74C599.628 68.08 598.008 68.98 596.268 68.98ZM593.928 75.64H598.728V103H593.928V75.64ZM611.437 61.6V95.26C611.437 97.6 612.037 98.68 614.197 98.68H615.697V103.12H612.877C608.137 103.12 606.637 100.3 606.637 95.8V61.6H611.437ZM625.499 61.6V95.26C625.499 97.6 626.099 98.68 628.259 98.68H629.759V103.12H626.939C622.199 103.12 620.699 100.3 620.699 95.8V61.6H625.499ZM650.722 103V99.64C649.102 101.56 646.042 103.6 641.542 103.6C636.382 103.6 633.262 100.72 633.262 95.86C633.262 90.28 638.242 87.82 645.802 87.04L650.482 86.56V83.86C650.482 80.74 649.162 79 644.782 79C641.002 79 639.142 80.38 639.142 82.36V83.92H634.882C634.762 83.26 634.702 82.66 634.702 81.94C634.702 77.92 638.242 75.04 645.022 75.04C651.682 75.04 655.282 77.92 655.282 83.8V103H650.722ZM638.122 95.62C638.122 98.26 639.742 99.76 642.922 99.76C646.102 99.76 648.802 98.2 650.482 96.4V89.86L645.982 90.4C641.062 91.06 638.122 92.56 638.122 95.62Z" fill="white"/>
<path d="M298.288 173V164.136L290.8 151.368H292.304L298.928 162.824L305.552 151.368H307.088L299.568 164.136V173H298.288ZM312.751 158.088C317.295 158.088 319.023 161.384 319.023 165.672C319.023 170.088 317.295 173.32 312.687 173.32C308.335 173.32 306.479 170.088 306.479 165.672C306.479 161.384 308.335 158.088 312.751 158.088ZM312.687 172.136C316.399 172.136 317.743 169.448 317.743 165.672C317.743 161.928 316.399 159.272 312.751 159.272C309.167 159.272 307.759 161.928 307.759 165.672C307.759 169.448 309.167 172.136 312.687 172.136ZM334.797 173H333.581V171.176C332.589 172.488 330.445 173.32 328.493 173.32C324.557 173.32 323.245 171.432 323.245 167.912V158.408H324.461V167.912C324.461 170.696 325.389 172.136 328.493 172.136C330.829 172.136 332.557 171.208 333.581 169.832V158.408H334.797V173ZM341.215 160.904C342.015 159.336 343.231 158.088 345.471 158.088C346.143 158.088 346.847 158.152 347.359 158.312L347.071 159.624C346.559 159.464 345.951 159.368 345.471 159.368C343.199 159.368 342.047 161 341.183 163.112V173H339.967V158.408H341.183V160.904H341.215ZM358.205 162.216C358.205 167.624 359.997 172.072 365.277 172.072C367.549 172.072 369.821 171.144 370.781 169.16L371.869 169.896C370.845 171.88 368.285 173.32 365.277 173.32C359.421 173.32 356.893 168.968 356.893 162.216C356.893 155.432 359.421 151.048 365.277 151.048C368.285 151.048 370.845 152.488 371.869 154.472L370.781 155.208C369.821 153.224 367.549 152.296 365.277 152.296C359.997 152.296 358.205 156.776 358.205 162.216ZM377.118 150.92V169.48C377.118 171.048 377.47 171.848 378.782 171.848H379.71V173H378.718C376.606 173 375.902 171.848 375.902 169.48V150.92H377.118ZM391.482 173V171.08C390.65 172.04 388.922 173.32 386.33 173.32C383.418 173.32 381.786 171.848 381.786 169.32C381.786 166.536 384.346 165.288 388.122 164.808L391.482 164.392V162.472C391.482 160.296 390.554 159.272 387.77 159.272C385.21 159.272 383.962 160.104 383.962 161.448V162.536H382.778C382.714 162.152 382.682 161.896 382.682 161.448C382.682 159.56 384.186 158.088 387.77 158.088C391.258 158.088 392.698 159.688 392.698 162.408V173H391.482ZM383.066 169.32C383.066 171.08 384.058 172.136 386.33 172.136C388.602 172.136 390.426 171.016 391.482 169.8V165.544L388.25 165.96C385.082 166.376 383.066 167.24 383.066 169.32ZM409.204 173H407.988V171.176C406.996 172.488 404.852 173.32 402.9 173.32C398.964 173.32 397.652 171.432 397.652 167.912V158.408H398.868V167.912C398.868 170.696 399.796 172.136 402.9 172.136C405.236 172.136 406.964 171.208 407.988 169.832V158.408H409.204V173ZM424.357 150.92H425.573V173H424.357V171.432C423.557 172.456 421.957 173.32 419.813 173.32C415.365 173.32 413.541 170.216 413.541 165.672C413.541 161.16 415.397 158.088 419.845 158.088C422.021 158.088 423.493 158.952 424.357 160.072V150.92ZM414.821 165.672C414.821 169.352 416.005 172.136 419.813 172.136C422.149 172.136 423.685 170.984 424.357 169.608V161.832C423.749 160.712 422.309 159.272 419.845 159.272C415.973 159.272 414.821 161.896 414.821 165.672ZM436.092 172.136C437.436 172.136 439.356 171.624 440.476 170.376L441.212 171.304C440.444 172.328 438.268 173.32 436.092 173.32C431.58 173.32 429.916 170.152 429.916 165.672C429.916 161.352 431.708 158.088 435.996 158.088C439.708 158.088 441.5 160.936 441.5 164.04C441.5 164.616 441.436 165.448 441.34 166.056H431.164C431.196 169.64 432.508 172.136 436.092 172.136ZM440.156 164.904C440.188 164.712 440.22 164.328 440.22 164.104C440.22 161.416 438.876 159.272 435.996 159.272C432.604 159.272 431.388 161.704 431.196 164.904H440.156ZM454.142 162.216C454.142 167.624 455.934 172.072 461.214 172.072C463.486 172.072 465.758 171.144 466.718 169.16L467.806 169.896C466.782 171.88 464.222 173.32 461.214 173.32C455.358 173.32 452.83 168.968 452.83 162.216C452.83 155.432 455.358 151.048 461.214 151.048C464.222 151.048 466.782 152.488 467.806 154.472L466.718 155.208C465.758 153.224 463.486 152.296 461.214 152.296C455.934 152.296 454.142 156.776 454.142 162.216ZM477.376 158.088C481.92 158.088 483.648 161.384 483.648 165.672C483.648 170.088 481.92 173.32 477.312 173.32C472.96 173.32 471.104 170.088 471.104 165.672C471.104 161.384 472.96 158.088 477.376 158.088ZM477.312 172.136C481.024 172.136 482.368 169.448 482.368 165.672C482.368 161.928 481.024 159.272 477.376 159.272C473.792 159.272 472.384 161.928 472.384 165.672C472.384 169.448 473.792 172.136 477.312 172.136ZM497.982 150.92H499.198V173H497.982V171.432C497.182 172.456 495.582 173.32 493.438 173.32C488.99 173.32 487.166 170.216 487.166 165.672C487.166 161.16 489.022 158.088 493.47 158.088C495.646 158.088 497.118 158.952 497.982 160.072V150.92ZM488.446 165.672C488.446 169.352 489.63 172.136 493.438 172.136C495.774 172.136 497.31 170.984 497.982 169.608V161.832C497.374 160.712 495.934 159.272 493.47 159.272C489.598 159.272 488.446 161.896 488.446 165.672ZM509.717 172.136C511.061 172.136 512.981 171.624 514.101 170.376L514.837 171.304C514.069 172.328 511.893 173.32 509.717 173.32C505.205 173.32 503.541 170.152 503.541 165.672C503.541 161.352 505.333 158.088 509.621 158.088C513.333 158.088 515.125 160.936 515.125 164.04C515.125 164.616 515.061 165.448 514.965 166.056H504.789C504.821 169.64 506.133 172.136 509.717 172.136ZM513.781 164.904C513.813 164.712 513.845 164.328 513.845 164.104C513.845 161.416 512.501 159.272 509.621 159.272C506.229 159.272 505.013 161.704 504.821 164.904H513.781ZM539.85 151.368L545.93 171.336L552.074 151.368H553.546L546.762 173H545.098L539.05 153.192L533.034 173H531.37L524.586 151.368H526.058L532.202 171.336L538.282 151.368H539.85ZM564.232 173V171.08C563.4 172.04 561.672 173.32 559.08 173.32C556.168 173.32 554.536 171.848 554.536 169.32C554.536 166.536 557.096 165.288 560.872 164.808L564.232 164.392V162.472C564.232 160.296 563.304 159.272 560.52 159.272C557.96 159.272 556.712 160.104 556.712 161.448V162.536H555.528C555.464 162.152 555.432 161.896 555.432 161.448C555.432 159.56 556.936 158.088 560.52 158.088C564.008 158.088 565.448 159.688 565.448 162.408V173H564.232ZM555.816 169.32C555.816 171.08 556.808 172.136 559.08 172.136C561.352 172.136 563.176 171.016 564.232 169.8V165.544L561 165.96C557.832 166.376 555.816 167.24 555.816 169.32ZM581.477 158.408L575.877 173H574.373L568.741 158.408H570.117L575.141 171.816L580.101 158.408H581.477ZM590.061 172.136C591.405 172.136 593.325 171.624 594.445 170.376L595.181 171.304C594.413 172.328 592.237 173.32 590.061 173.32C585.549 173.32 583.885 170.152 583.885 165.672C583.885 161.352 585.677 158.088 589.965 158.088C593.677 158.088 595.469 160.936 595.469 164.04C595.469 164.616 595.405 165.448 595.309 166.056H585.133C585.165 169.64 586.477 172.136 590.061 172.136ZM594.125 164.904C594.157 164.712 594.189 164.328 594.189 164.104C594.189 161.416 592.845 159.272 589.965 159.272C586.573 159.272 585.357 161.704 585.165 164.904H594.125ZM606.948 163.816V164.968H599.524V163.816H606.948ZM628.225 162.216C628.225 168.776 625.825 173.32 619.745 173.32C613.729 173.32 611.393 168.776 611.393 162.216C611.393 155.656 613.761 151.048 619.777 151.048C625.825 151.048 628.225 155.688 628.225 162.216ZM612.705 162.216C612.705 168.104 614.465 172.072 619.745 172.072C625.249 172.072 626.913 168.104 626.913 162.216C626.913 156.392 625.249 152.296 619.777 152.296C614.465 152.296 612.705 156.392 612.705 162.216ZM633.996 160.904C634.796 159.336 636.012 158.088 638.252 158.088C638.924 158.088 639.628 158.152 640.14 158.312L639.852 159.624C639.34 159.464 638.732 159.368 638.252 159.368C635.98 159.368 634.828 161 633.964 163.112V173H632.748V158.408H633.964V160.904H633.996ZM641.666 165.736C641.666 161.32 643.618 158.088 647.874 158.088C650.178 158.088 651.874 159.016 652.898 160.776L651.874 161.448C650.978 159.88 649.666 159.272 647.874 159.272C644.29 159.272 642.946 162.024 642.946 165.736C642.946 169.448 644.29 172.136 647.874 172.136C649.666 172.136 651.01 171.528 651.874 169.992L652.898 170.664C651.906 172.36 650.178 173.32 647.874 173.32C643.618 173.32 641.666 170.216 641.666 165.736ZM656.843 150.92H658.059V160.232C659.051 158.92 661.195 158.088 663.147 158.088C667.083 158.088 668.395 159.976 668.395 163.496V173H667.179V163.496C667.179 160.712 666.251 159.272 663.147 159.272C660.811 159.272 659.083 160.2 658.059 161.576V173H656.843V150.92ZM678.78 172.136C680.124 172.136 682.044 171.624 683.164 170.376L683.9 171.304C683.132 172.328 680.956 173.32 678.78 173.32C674.268 173.32 672.604 170.152 672.604 165.672C672.604 161.352 674.396 158.088 678.684 158.088C682.396 158.088 684.188 160.936 684.188 164.04C684.188 164.616 684.124 165.448 684.028 166.056H673.852C673.884 169.64 675.196 172.136 678.78 172.136ZM682.844 164.904C682.876 164.712 682.908 164.328 682.908 164.104C682.908 161.416 681.564 159.272 678.684 159.272C675.292 159.272 674.076 161.704 673.884 164.904H682.844ZM696.627 160.904C695.923 160.04 694.707 159.272 692.755 159.272C690.099 159.272 689.107 160.68 689.107 162.28C689.107 163.432 689.619 164.328 691.379 164.744L693.907 165.352C696.403 165.96 697.875 167.08 697.875 169.192C697.875 171.72 695.763 173.32 692.499 173.32C689.491 173.32 688.115 171.976 687.315 170.888L688.243 170.056C689.011 171.048 689.747 172.136 692.499 172.136C694.899 172.136 696.595 171.176 696.595 169.192C696.595 167.688 695.411 167.048 693.683 166.6L691.091 165.96C688.883 165.416 687.827 164.04 687.827 162.28C687.827 160.232 689.267 158.088 692.755 158.088C695.155 158.088 696.787 159.112 697.555 160.072L696.627 160.904ZM704.27 169.352C704.27 170.952 704.846 172.136 706.574 172.136C707.374 172.136 708.206 171.848 708.878 171.464L709.294 172.552C708.59 172.968 707.661 173.32 706.446 173.32C704.141 173.32 703.054 171.88 703.054 169.384V159.56H700.174V158.728L703.054 158.408V154.632L704.27 154.312V158.408H708.814V159.56H704.27V169.352ZM713.715 160.904C714.515 159.336 715.731 158.088 717.971 158.088C718.643 158.088 719.347 158.152 719.859 158.312L719.571 159.624C719.059 159.464 718.451 159.368 717.971 159.368C715.699 159.368 714.547 161 713.683 163.112V173H712.467V158.408H713.683V160.904H713.715ZM731.326 173V171.08C730.494 172.04 728.766 173.32 726.174 173.32C723.262 173.32 721.63 171.848 721.63 169.32C721.63 166.536 724.19 165.288 727.966 164.808L731.326 164.392V162.472C731.326 160.296 730.398 159.272 727.614 159.272C725.054 159.272 723.806 160.104 723.806 161.448V162.536H722.622C722.558 162.152 722.526 161.896 722.526 161.448C722.526 159.56 724.03 158.088 727.614 158.088C731.102 158.088 732.542 159.688 732.542 162.408V173H731.326ZM722.91 169.32C722.91 171.08 723.902 172.136 726.174 172.136C728.446 172.136 730.27 171.016 731.326 169.8V165.544L728.094 165.96C724.926 166.376 722.91 167.24 722.91 169.32ZM739.863 169.352C739.863 170.952 740.439 172.136 742.167 172.136C742.967 172.136 743.799 171.848 744.471 171.464L744.887 172.552C744.183 172.968 743.255 173.32 742.039 173.32C739.735 173.32 738.647 171.88 738.647 169.384V159.56H735.767V158.728L738.647 158.408V154.632L739.863 154.312V158.408H744.407V159.56H739.863V169.352ZM748.701 154.088C747.997 154.088 747.453 153.704 747.453 152.84C747.453 151.944 747.997 151.56 748.701 151.56C749.341 151.56 749.949 151.944 749.949 152.84C749.949 153.704 749.341 154.088 748.701 154.088ZM748.093 158.408H749.309V173H748.093V158.408ZM759.97 158.088C764.514 158.088 766.242 161.384 766.242 165.672C766.242 170.088 764.514 173.32 759.906 173.32C755.554 173.32 753.698 170.088 753.698 165.672C753.698 161.384 755.554 158.088 759.97 158.088ZM759.906 172.136C763.618 172.136 764.962 169.448 764.962 165.672C764.962 161.928 763.618 159.272 759.97 159.272C756.386 159.272 754.978 161.928 754.978 165.672C754.978 169.448 756.386 172.136 759.906 172.136ZM770.592 158.408H771.808V160.232C772.8 158.92 774.944 158.088 776.896 158.088C780.832 158.088 782.144 159.976 782.144 163.496V173H780.928V163.496C780.928 160.712 780 159.272 776.896 159.272C774.56 159.272 772.832 160.2 771.808 161.576V173H770.592V158.408ZM807.307 151.368V152.584H800.651V173H799.371V152.584H792.715V151.368H807.307ZM812.938 158.088C817.482 158.088 819.21 161.384 819.21 165.672C819.21 170.088 817.482 173.32 812.874 173.32C808.522 173.32 806.666 170.088 806.666 165.672C806.666 161.384 808.522 158.088 812.938 158.088ZM812.874 172.136C816.586 172.136 817.93 169.448 817.93 165.672C817.93 161.928 816.586 159.272 812.938 159.272C809.354 159.272 807.946 161.928 807.946 165.672C807.946 169.448 809.354 172.136 812.874 172.136ZM829.001 158.088C833.545 158.088 835.273 161.384 835.273 165.672C835.273 170.088 833.545 173.32 828.937 173.32C824.585 173.32 822.729 170.088 822.729 165.672C822.729 161.384 824.585 158.088 829.001 158.088ZM828.937 172.136C832.649 172.136 833.993 169.448 833.993 165.672C833.993 161.928 832.649 159.272 829.001 159.272C825.417 159.272 824.009 161.928 824.009 165.672C824.009 169.448 825.417 172.136 828.937 172.136ZM840.743 150.92V169.48C840.743 171.048 841.095 171.848 842.407 171.848H843.335V173H842.343C840.231 173 839.527 171.848 839.527 169.48V150.92H840.743ZM855.939 173L850.499 165.064L847.715 167.72V173H846.499V150.92H847.715V166.088L855.843 158.408H857.603L851.459 164.232L857.507 173H855.939ZM861.607 154.088C860.903 154.088 860.359 153.704 860.359 152.84C860.359 151.944 860.903 151.56 861.607 151.56C862.247 151.56 862.855 151.944 862.855 152.84C862.855 153.704 862.247 154.088 861.607 154.088ZM860.999 158.408H862.215V173H860.999V158.408ZM869.676 169.352C869.676 170.952 870.252 172.136 871.98 172.136C872.78 172.136 873.612 171.848 874.284 171.464L874.7 172.552C873.996 172.968 873.068 173.32 871.852 173.32C869.548 173.32 868.46 171.88 868.46 169.384V159.56H865.58V158.728L868.46 158.408V154.632L869.676 154.312V158.408H874.22V159.56H869.676V169.352Z" fill="white"/>
<defs>
<clipPath id="clip0_6_591">
<rect width="151.909" height="1165" fill="white" transform="matrix(0 -1 -1 0 1165 384.909)"/>
</clipPath>
</defs>
</svg>
